<svg width="25" height="25" viewBox="0 0 25 25" fill="none" xmlns="http://www.w3.org/2000/svg">
<g clip-path="url(#clip0_7456_1819)">
<circle cx="12.9912" cy="7.61572" r="6" fill="#FFE700"/>
<path d="M12.9862 0.615723C9.25498 0.615723 6.22217 3.64854 6.22217 7.37979C6.22217 11.111 9.25498 14.1438 12.9862 14.1438C16.7175 14.1438 19.7503 11.111 19.7503 7.37979C19.7503 3.64854 16.7175 0.615723 12.9862 0.615723ZM12.9862 11.7954C10.5487 11.7954 8.56592 9.8126 8.56592 7.3751C8.56592 4.9376 10.5534 2.95947 12.9862 2.95947C15.419 2.95947 17.4065 4.94229 17.4065 7.37979C17.4065 9.81729 15.4237 11.7954 12.9862 11.7954Z" fill="black"/>
<path d="M23.7677 20.5187C23.1583 18.2734 21.8833 16.3 20.0786 14.8187C19.577 14.4062 18.8411 14.4812 18.4286 14.9781C18.0161 15.4797 18.0911 16.2156 18.588 16.6281C20.013 17.8047 21.0255 19.3609 21.5036 21.1328C21.602 21.5031 21.4473 21.775 21.3489 21.9109C21.1708 22.1406 20.9036 22.2765 20.613 22.2765C19.9661 22.2765 19.4411 22.8015 19.4411 23.4484C19.4411 24.0953 19.9661 24.6203 20.613 24.6203C21.6395 24.6203 22.5864 24.1515 23.2098 23.3359C23.8286 22.525 24.0348 21.4984 23.7677 20.5187Z" fill="black"/>
<path d="M16.4035 22.2718H5.36444C4.97069 22.2718 4.741 22.0468 4.63788 21.9109C4.45975 21.6765 4.4035 21.3812 4.48319 21.0999C4.966 19.3468 5.96913 17.7999 7.38006 16.6374C7.87694 16.2249 7.95194 15.489 7.53944 14.9874C7.12694 14.4859 6.391 14.4156 5.88944 14.8281C4.1035 16.3046 2.83319 18.2546 2.22381 20.4812C1.95194 21.4749 2.1535 22.5156 2.77694 23.3359C3.391 24.1468 4.33788 24.6156 5.36444 24.6156H16.4035C17.0504 24.6156 17.5754 24.0906 17.5754 23.4437C17.5754 22.7968 17.0504 22.2718 16.4035 22.2718Z" fill="black"/>
</g>
<defs>
<clipPath id="clip0_7456_1819">
<rect width="24" height="24" fill="white" transform="translate(0.991211 0.615723)"/>
</clipPath>
</defs>
</svg>
